<?xml version="1.0" encoding="UTF-8" standalone="no"?>
<!DOCTYPE svg PUBLIC "-//W3C//DTD SVG 1.1//EN"
 "http://www.w3.org/Graphics/SVG/1.1/DTD/svg11.dtd">
<!-- Generated by graphviz version 2.40.1 (20161225.0304)
 -->
<!-- Title: snakemake_dag Pages: 1 -->
<svg width="594pt" height="332pt"
 viewBox="0.00 0.00 594.00 332.00" xmlns="http://www.w3.org/2000/svg" xmlns:xlink="http://www.w3.org/1999/xlink">
<g id="graph0" class="graph" transform="scale(1 1) rotate(0) translate(4 328)">
<title>snakemake_dag</title>
<polygon fill="#ffffff" stroke="transparent" points="-4,4 -4,-328 590,-328 590,4 -4,4"/>
<!-- 0 -->
<g id="node1" class="node">
<title>0</title>
<path fill="none" stroke="#c6d856" stroke-width="2" d="M276,-36C276,-36 246,-36 246,-36 240,-36 234,-30 234,-24 234,-24 234,-12 234,-12 234,-6 240,0 246,0 246,0 276,0 276,0 282,0 288,-6 288,-12 288,-12 288,-24 288,-24 288,-30 282,-36 276,-36"/>
<text text-anchor="middle" x="261" y="-15.5" font-family="sans" font-size="10.00" fill="#000000">all</text>
</g>
<!-- 1 -->
<g id="node2" class="node">
<title>1</title>
<path fill="none" stroke="#56a2d8" stroke-width="2" d="M240,-108C240,-108 200,-108 200,-108 194,-108 188,-102 188,-96 188,-96 188,-84 188,-84 188,-78 194,-72 200,-72 200,-72 240,-72 240,-72 246,-72 252,-78 252,-84 252,-84 252,-96 252,-96 252,-102 246,-108 240,-108"/>
<text text-anchor="middle" x="220" y="-87.5" font-family="sans" font-size="10.00" fill="#000000">Complete</text>
</g>
<!-- 1&#45;&gt;0 -->
<g id="edge1" class="edge">
<title>1&#45;&gt;0</title>
<path fill="none" stroke="#c0c0c0" stroke-width="2" d="M230.346,-71.8314C234.9237,-63.7925 240.4052,-54.1666 245.4588,-45.2918"/>
<polygon fill="#c0c0c0" stroke="#c0c0c0" stroke-width="2" points="248.6077,-46.8351 250.5147,-36.4133 242.5248,-43.3712 248.6077,-46.8351"/>
</g>
<!-- 2 -->
<g id="node3" class="node">
<title>2</title>
<path fill="none" stroke="#56a2d8" stroke-width="2" d="M379,-108C379,-108 339,-108 339,-108 333,-108 327,-102 327,-96 327,-96 327,-84 327,-84 327,-78 333,-72 339,-72 339,-72 379,-72 379,-72 385,-72 391,-78 391,-84 391,-84 391,-96 391,-96 391,-102 385,-108 379,-108"/>
<text text-anchor="middle" x="359" y="-87.5" font-family="sans" font-size="10.00" fill="#000000">Complete</text>
</g>
<!-- 2&#45;&gt;0 -->
<g id="edge2" class="edge">
<title>2&#45;&gt;0</title>
<path fill="none" stroke="#c0c0c0" stroke-width="2" d="M334.2705,-71.8314C322.0838,-62.8779 307.2177,-51.9558 294.0688,-42.2955"/>
<polygon fill="#c0c0c0" stroke="#c0c0c0" stroke-width="2" points="295.8527,-39.263 285.7216,-36.1628 291.7082,-44.9042 295.8527,-39.263"/>
</g>
<!-- 3 -->
<g id="node4" class="node">
<title>3</title>
<path fill="none" stroke="#78d856" stroke-width="2" d="M179.5,-180C179.5,-180 78.5,-180 78.5,-180 72.5,-180 66.5,-174 66.5,-168 66.5,-168 66.5,-156 66.5,-156 66.5,-150 72.5,-144 78.5,-144 78.5,-144 179.5,-144 179.5,-144 185.5,-144 191.5,-150 191.5,-156 191.5,-156 191.5,-168 191.5,-168 191.5,-174 185.5,-180 179.5,-180"/>
<text text-anchor="middle" x="129" y="-159.5" font-family="sans" font-size="10.00" fill="#000000">Compress_Randomize</text>
</g>
<!-- 3&#45;&gt;1 -->
<g id="edge3" class="edge">
<title>3&#45;&gt;1</title>
<path fill="none" stroke="#c0c0c0" stroke-width="2" d="M151.9631,-143.8314C163.1715,-134.9632 176.8209,-124.1637 188.9439,-114.5718"/>
<polygon fill="#c0c0c0" stroke="#c0c0c0" stroke-width="2" points="191.3737,-117.1125 197.0442,-108.1628 187.0303,-111.6229 191.3737,-117.1125"/>
</g>
<!-- 4 -->
<g id="node5" class="node">
<title>4</title>
<path fill="none" stroke="#d8a456" stroke-width="2" d="M286,-180C286,-180 222,-180 222,-180 216,-180 210,-174 210,-168 210,-168 210,-156 210,-156 210,-150 216,-144 222,-144 222,-144 286,-144 286,-144 292,-144 298,-150 298,-156 298,-156 298,-168 298,-168 298,-174 292,-180 286,-180"/>
<text text-anchor="middle" x="254" y="-159.5" font-family="sans" font-size="10.00" fill="#000000">Compute_MD5</text>
</g>
<!-- 4&#45;&gt;1 -->
<g id="edge4" class="edge">
<title>4&#45;&gt;1</title>
<path fill="none" stroke="#c0c0c0" stroke-width="2" d="M245.4204,-143.8314C241.6642,-135.8771 237.1743,-126.369 233.0202,-117.5723"/>
<polygon fill="#c0c0c0" stroke="#c0c0c0" stroke-width="2" points="236.1301,-115.9612 228.6952,-108.4133 229.8004,-118.9503 236.1301,-115.9612"/>
</g>
<!-- 5 -->
<g id="node6" class="node">
<title>5</title>
<path fill="none" stroke="#d85656" stroke-width="2" d="M64,-252C64,-252 12,-252 12,-252 6,-252 0,-246 0,-240 0,-240 0,-228 0,-228 0,-222 6,-216 12,-216 12,-216 64,-216 64,-216 70,-216 76,-222 76,-228 76,-228 76,-240 76,-240 76,-246 70,-252 64,-252"/>
<text text-anchor="middle" x="38" y="-231.5" font-family="sans" font-size="10.00" fill="#000000">Count_Lines</text>
</g>
<!-- 5&#45;&gt;1 -->
<g id="edge5" class="edge">
<title>5&#45;&gt;1</title>
<path fill="none" stroke="#c0c0c0" stroke-width="2" d="M36.8428,-215.7784C36.5884,-195.7385 39.3323,-163.7633 57,-144 73.2325,-125.8422 135.1502,-108.8641 177.8197,-98.9574"/>
<polygon fill="#c0c0c0" stroke="#c0c0c0" stroke-width="2" points="178.7033,-102.3459 187.6774,-96.7141 177.15,-95.5204 178.7033,-102.3459"/>
</g>
<!-- 6 -->
<g id="node7" class="node">
<title>6</title>
<path fill="none" stroke="#d85656" stroke-width="2" d="M352,-252C352,-252 300,-252 300,-252 294,-252 288,-246 288,-240 288,-240 288,-228 288,-228 288,-222 294,-216 300,-216 300,-216 352,-216 352,-216 358,-216 364,-222 364,-228 364,-228 364,-240 364,-240 364,-246 358,-252 352,-252"/>
<text text-anchor="middle" x="326" y="-231.5" font-family="sans" font-size="10.00" fill="#000000">Count_Lines</text>
</g>
<!-- 6&#45;&gt;2 -->
<g id="edge6" class="edge">
<title>6&#45;&gt;2</title>
<path fill="none" stroke="#c0c0c0" stroke-width="2" d="M329.9664,-215.7072C333.9358,-197.5076 340.2611,-168.7943 346,-144 347.9264,-135.6771 350.0765,-126.6475 352.0646,-118.3972"/>
<polygon fill="#c0c0c0" stroke="#c0c0c0" stroke-width="2" points="355.5153,-119.0183 354.4673,-108.4754 348.7119,-117.3707 355.5153,-119.0183"/>
</g>
<!-- 7 -->
<g id="node8" class="node">
<title>7</title>
<path fill="none" stroke="#78d856" stroke-width="2" d="M467.5,-180C467.5,-180 366.5,-180 366.5,-180 360.5,-180 354.5,-174 354.5,-168 354.5,-168 354.5,-156 354.5,-156 354.5,-150 360.5,-144 366.5,-144 366.5,-144 467.5,-144 467.5,-144 473.5,-144 479.5,-150 479.5,-156 479.5,-156 479.5,-168 479.5,-168 479.5,-174 473.5,-180 467.5,-180"/>
<text text-anchor="middle" x="417" y="-159.5" font-family="sans" font-size="10.00" fill="#000000">Compress_Randomize</text>
</g>
<!-- 7&#45;&gt;2 -->
<g id="edge7" class="edge">
<title>7&#45;&gt;2</title>
<path fill="none" stroke="#c0c0c0" stroke-width="2" d="M402.3642,-143.8314C395.6839,-135.5386 387.6432,-125.557 380.3096,-116.4533"/>
<polygon fill="#c0c0c0" stroke="#c0c0c0" stroke-width="2" points="382.8319,-114.0052 373.8329,-108.4133 377.3806,-118.3965 382.8319,-114.0052"/>
</g>
<!-- 8 -->
<g id="node9" class="node">
<title>8</title>
<path fill="none" stroke="#d8a456" stroke-width="2" d="M574,-180C574,-180 510,-180 510,-180 504,-180 498,-174 498,-168 498,-168 498,-156 498,-156 498,-150 504,-144 510,-144 510,-144 574,-144 574,-144 580,-144 586,-150 586,-156 586,-156 586,-168 586,-168 586,-174 580,-180 574,-180"/>
<text text-anchor="middle" x="542" y="-159.5" font-family="sans" font-size="10.00" fill="#000000">Compute_MD5</text>
</g>
<!-- 8&#45;&gt;2 -->
<g id="edge8" class="edge">
<title>8&#45;&gt;2</title>
<path fill="none" stroke="#c0c0c0" stroke-width="2" d="M497.7008,-144.5708C468.1444,-132.9421 429.5395,-117.7533 400.5648,-106.3534"/>
<polygon fill="#c0c0c0" stroke="#c0c0c0" stroke-width="2" points="401.7219,-103.0475 391.1347,-102.6432 399.1589,-109.5615 401.7219,-103.0475"/>
</g>
<!-- 9 -->
<g id="node10" class="node">
<title>9</title>
<path fill="none" stroke="#56d87b" stroke-width="2" d="M184,-252C184,-252 106,-252 106,-252 100,-252 94,-246 94,-240 94,-240 94,-228 94,-228 94,-222 100,-216 106,-216 106,-216 184,-216 184,-216 190,-216 196,-222 196,-228 196,-228 196,-240 196,-240 196,-246 190,-252 184,-252"/>
<text text-anchor="middle" x="145" y="-231.5" font-family="sans" font-size="10.00" fill="#000000">Randomize_Lines</text>
</g>
<!-- 9&#45;&gt;3 -->
<g id="edge9" class="edge">
<title>9&#45;&gt;3</title>
<path fill="none" stroke="#c0c0c0" stroke-width="2" d="M140.9625,-215.8314C139.2513,-208.131 137.2165,-198.9743 135.3148,-190.4166"/>
<polygon fill="#c0c0c0" stroke="#c0c0c0" stroke-width="2" points="138.6779,-189.4159 133.0918,-180.4133 131.8446,-190.9344 138.6779,-189.4159"/>
</g>
<!-- 9&#45;&gt;4 -->
<g id="edge10" class="edge">
<title>9&#45;&gt;4</title>
<path fill="none" stroke="#c0c0c0" stroke-width="2" d="M172.5053,-215.8314C186.318,-206.7074 203.2256,-195.539 218.0529,-185.7449"/>
<polygon fill="#c0c0c0" stroke="#c0c0c0" stroke-width="2" points="220.0886,-188.5949 226.5035,-180.1628 216.2304,-182.7541 220.0886,-188.5949"/>
</g>
<!-- 10 -->
<g id="node11" class="node">
<title>10</title>
<path fill="none" stroke="#56d8c9" stroke-width="2" d="M129,-324C129,-324 55,-324 55,-324 49,-324 43,-318 43,-312 43,-312 43,-300 43,-300 43,-294 49,-288 55,-288 55,-288 129,-288 129,-288 135,-288 141,-294 141,-300 141,-300 141,-312 141,-312 141,-318 135,-324 129,-324"/>
<text text-anchor="middle" x="92" y="-309" font-family="sans" font-size="10.00" fill="#000000">Download_Data</text>
<text text-anchor="middle" x="92" y="-298" font-family="sans" font-size="10.00" fill="#000000">dataset: abalone</text>
</g>
<!-- 10&#45;&gt;5 -->
<g id="edge11" class="edge">
<title>10&#45;&gt;5</title>
<path fill="none" stroke="#c0c0c0" stroke-width="2" d="M78.3735,-287.8314C72.154,-279.5386 64.6678,-269.557 57.84,-260.4533"/>
<polygon fill="#c0c0c0" stroke="#c0c0c0" stroke-width="2" points="60.61,-258.3133 51.81,-252.4133 55.01,-262.5133 60.61,-258.3133"/>
</g>
<!-- 10&#45;&gt;9 -->
<g id="edge15" class="edge">
<title>10&#45;&gt;9</title>
<path fill="none" stroke="#c0c0c0" stroke-width="2" d="M105.3741,-287.8314C111.4162,-279.6232 118.6763,-269.7606 125.3221,-260.7323"/>
<polygon fill="#c0c0c0" stroke="#c0c0c0" stroke-width="2" points="128.3363,-262.5415 131.4458,-252.4133 122.6989,-258.3918 128.3363,-262.5415"/>
</g>
<!-- 11 -->
<g id="node12" class="node">
<title>11</title>
<path fill="none" stroke="#56d8c9" stroke-width="2" d="M414,-324C414,-324 344,-324 344,-324 338,-324 332,-318 332,-312 332,-312 332,-300 332,-300 332,-294 338,-288 344,-288 344,-288 414,-288 414,-288 420,-288 426,-294 426,-300 426,-300 426,-312 426,-312 426,-318 420,-324 414,-324"/>
<text text-anchor="middle" x="379" y="-309" font-family="sans" font-size="10.00" fill="#000000">Download_Data</text>
<text text-anchor="middle" x="379" y="-298" font-family="sans" font-size="10.00" fill="#000000">dataset: iris</text>
</g>
<!-- 11&#45;&gt;6 -->
<g id="edge12" class="edge">
<title>11&#45;&gt;6</title>
<path fill="none" stroke="#c0c0c0" stroke-width="2" d="M365.6259,-287.8314C359.5838,-279.6232 352.3237,-269.7606 345.6779,-260.7323"/>
<polygon fill="#c0c0c0" stroke="#c0c0c0" stroke-width="2" points="348.3011,-258.3918 339.5542,-252.4133 342.6637,-262.5415 348.3011,-258.3918"/>
</g>
<!-- 12 -->
<g id="node13" class="node">
<title>12</title>
<path fill="none" stroke="#56d87b" stroke-width="2" d="M472,-252C472,-252 394,-252 394,-252 388,-252 382,-246 382,-240 382,-240 382,-228 382,-228 382,-222 388,-216 394,-216 394,-216 472,-216 472,-216 478,-216 484,-222 484,-228 484,-228 484,-240 484,-240 484,-246 478,-252 472,-252"/>
<text text-anchor="middle" x="433" y="-231.5" font-family="sans" font-size="10.00" fill="#000000">Randomize_Lines</text>
</g>
<!-- 11&#45;&gt;12 -->
<g id="edge16" class="edge">
<title>11&#45;&gt;12</title>
<path fill="none" stroke="#c0c0c0" stroke-width="2" d="M392.6265,-287.8314C398.846,-279.5386 406.3322,-269.557 413.16,-260.4533"/>
<polygon fill="#c0c0c0" stroke="#c0c0c0" stroke-width="2" points="415.99,-262.5133 419.19,-252.4133 410.39,-258.3133 415.99,-262.5133"/>
</g>
<!-- 12&#45;&gt;7 -->
<g id="edge13" class="edge">
<title>12&#45;&gt;7</title>
<path fill="none" stroke="#c0c0c0" stroke-width="2" d="M428.9625,-215.8314C427.2513,-208.131 425.2165,-198.9743 423.3148,-190.4166"/>
<polygon fill="#c0c0c0" stroke="#c0c0c0" stroke-width="2" points="426.6779,-189.4159 421.0918,-180.4133 419.8446,-190.9344 426.6779,-189.4159"/>
</g>
<!-- 12&#45;&gt;8 -->
<g id="edge14" class="edge">
<title>12&#45;&gt;8</title>
<path fill="none" stroke="#c0c0c0" stroke-width="2" d="M460.5053,-215.8314C474.318,-206.7074 491.2256,-195.539 506.0529,-185.7449"/>
<polygon fill="#c0c0c0" stroke="#c0c0c0" stroke-width="2" points="508.0886,-188.5949 514.5035,-180.1628 504.2304,-182.7541 508.0886,-188.5949"/>
</g>
</g>
</svg>
